<svg width="132" height="186" viewBox="0 0 132 186" fill="none" xmlns="http://www.w3.org/2000/svg">
<path fill-rule="evenodd" clip-rule="evenodd" d="M66 20C71.5229 20 76 15.5228 76 10C76 4.47715 71.5229 0 66 0C60.4772 0 56 4.47715 56 10C56 11.0523 56.1625 12.0667 56.4639 13.0194L14.0055 37.5327C12.9433 36.5797 11.5394 36 10 36C6.68629 36 4 38.6863 4 42C4 44.6124 5.66962 46.8349 8 47.6586V64.2C3.43552 65.1266 0 69.1621 0 74C0 79.5229 4.47715 84 10 84C13.0912 84 15.8548 82.5974 17.6891 80.394L60.026 104.837C60.0088 105.023 60 105.21 60 105.4C60 108.012 61.6696 110.235 64 111.059V127.4C61.6637 127.874 59.6231 129.163 58.1876 130.957L15.972 106.584C15.9905 106.392 16 106.197 16 106C16 102.686 13.3137 100 10 100C6.68629 100 4 102.686 4 106C4 109.314 6.68629 112 10 112C11.6693 112 13.1793 111.318 14.2669 110.218L56.3626 134.522C56.1263 135.374 56 136.272 56 137.2C56 142.723 60.4772 147.2 66 147.2C71.5229 147.2 76 142.723 76 137.2C76 136.708 75.9644 136.224 75.8958 135.751L90.0932 127.554C91.1429 128.455 92.5078 129 94 129C97.3137 129 100 126.314 100 123C100 122.622 99.965 122.252 99.8981 121.893L115.021 113.162C116.823 114.918 119.285 116 122 116C127.523 116 132 111.523 132 106C132 100.477 127.523 96 122 96C116.477 96 112 100.477 112 106C112 107.362 112.272 108.661 112.766 109.845L97.8913 118.433C97.3385 117.961 96.699 117.588 96 117.341V63.6586C98.3304 62.8349 100 60.6124 100 58C100 57.671 99.9735 57.3482 99.9226 57.0336L114.502 48.6164C116.334 50.6914 119.014 52 122 52C127.523 52 132 47.5228 132 42C132 36.4772 127.523 32 122 32C119.153 32 116.583 33.1901 114.762 35.1001L99.974 26.5623C99.9912 26.3772 100 26.1896 100 26C100 22.6863 97.3137 20 94 20C90.6863 20 88 22.6863 88 26C88 26.3219 88.0254 26.6379 88.0742 26.9461L70.0361 37.3604C68.9704 36.3909 67.5542 35.8 66 35.8C62.6863 35.8 60 38.4863 60 41.8C60 45.1137 62.6863 47.8 66 47.8C69.3137 47.8 72 45.1137 72 41.8C72 41.489 71.9763 41.1835 71.9307 40.8853L89.987 30.4605C91.05 31.4176 92.457 32 94 32C95.6765 32 97.1925 31.3124 98.2812 30.2038L112.633 38.49C112.224 39.5821 112 40.7649 112 42C112 43.1005 112.178 44.1594 112.506 45.1497L97.998 53.526C96.9367 52.577 95.5357 52 94 52C90.6863 52 88 54.6863 88 58C88 58.4201 88.0432 58.8302 88.1253 59.2259L73.8843 67.448C72.0541 65.1058 69.2029 63.6 66 63.6C62.8388 63.6 60.0202 65.0669 58.1876 67.357L15.9242 42.9562C15.9741 42.6448 16 42.3255 16 42C16 41.6746 15.9741 41.3552 15.9242 41.0438L58.412 16.5135C60.2459 18.648 62.9651 20 66 20ZM88.0982 124.087C88.0337 123.734 88 123.371 88 123C88 120.388 89.6696 118.165 92 117.341V63.6586C91.3402 63.4254 90.7334 63.0801 90.2024 62.6455L75.6684 71.0367C75.8848 71.8548 76 72.7139 76 73.6C76 79.1229 71.5229 83.6 66 83.6C60.4772 83.6 56 79.1229 56 73.6C56 72.6725 56.1263 71.7744 56.3626 70.9221L14.0055 46.4673C13.4272 46.9861 12.7476 47.3943 12 47.6586V64.2C16.5645 65.1266 20 69.1621 20 74C20 74.9969 19.8541 75.9598 19.5825 76.8684L61.7191 101.196C62.8078 100.088 64.3236 99.4 66 99.4C69.3137 99.4 72 102.086 72 105.4C72 108.012 70.3304 110.235 68 111.059V127.4C70.742 127.957 73.0766 129.635 74.5038 131.936L88.0982 124.087Z" fill="black"/>
<path d="M22.0917 186C19.5851 186 17.3717 185.587 15.4517 184.76C13.5584 183.907 11.9584 182.773 10.6517 181.36C9.37173 179.92 8.3984 178.307 7.73173 176.52C7.09173 174.707 6.77173 172.827 6.77173 170.88V170C6.77173 168.16 7.09173 166.36 7.73173 164.6C8.37173 162.84 9.30506 161.253 10.5317 159.84C11.7851 158.427 13.3184 157.307 15.1317 156.48C16.9717 155.627 19.0784 155.2 21.4517 155.2C24.0117 155.2 26.2784 155.68 28.2517 156.64C30.2251 157.573 31.8117 158.893 33.0117 160.6C34.2117 162.28 34.9184 164.24 35.1317 166.48H29.4117C29.2251 165.227 28.7584 164.16 28.0117 163.28C27.2651 162.373 26.3184 161.68 25.1717 161.2C24.0517 160.72 22.8117 160.48 21.4517 160.48C20.0917 160.48 18.8517 160.72 17.7317 161.2C16.6384 161.68 15.7051 162.36 14.9317 163.24C14.1584 164.12 13.5584 165.173 13.1317 166.4C12.7317 167.627 12.5317 168.987 12.5317 170.48C12.5317 172.107 12.7584 173.56 13.2117 174.84C13.6651 176.12 14.3051 177.213 15.1317 178.12C15.9584 179 16.9584 179.68 18.1317 180.16C19.3051 180.613 20.6251 180.84 22.0917 180.84C24.0384 180.84 25.7451 180.44 27.2117 179.64C28.6784 178.813 29.7451 177.747 30.4117 176.44L29.4117 181.04V173.52H34.6517V180C33.3984 181.893 31.6917 183.373 29.5317 184.44C27.3717 185.48 24.8917 186 22.0917 186ZM21.1717 174.64V170.4H37.0917V174.64H21.1717ZM51.053 186C49.1863 186 47.5463 185.68 46.133 185.04C44.7463 184.4 43.5863 183.547 42.653 182.48C41.7463 181.387 41.053 180.173 40.573 178.84C40.1196 177.507 39.893 176.147 39.893 174.76V174C39.893 172.56 40.1196 171.173 40.573 169.84C41.053 168.48 41.7463 167.28 42.653 166.24C43.5863 165.173 44.733 164.333 46.093 163.72C47.453 163.08 49.0263 162.76 50.813 162.76C53.1596 162.76 55.1196 163.28 56.693 164.32C58.293 165.333 59.493 166.68 60.293 168.36C61.093 170.013 61.493 171.8 61.493 173.72V175.72H42.253V172.32H58.013L56.293 174C56.293 172.613 56.093 171.427 55.693 170.44C55.293 169.453 54.6796 168.693 53.853 168.16C53.053 167.627 52.0396 167.36 50.813 167.36C49.5863 167.36 48.5463 167.64 47.693 168.2C46.8396 168.76 46.1863 169.573 45.733 170.64C45.3063 171.68 45.093 172.933 45.093 174.4C45.093 175.76 45.3063 176.973 45.733 178.04C46.1596 179.08 46.813 179.907 47.693 180.52C48.573 181.107 49.693 181.4 51.053 181.4C52.413 181.4 53.5196 181.133 54.373 180.6C55.2263 180.04 55.773 179.36 56.013 178.56H61.133C60.813 180.053 60.1996 181.36 59.293 182.48C58.3863 183.6 57.2263 184.467 55.813 185.08C54.4263 185.693 52.8396 186 51.053 186ZM66.1377 185.24V163.52H70.5377V172.84H70.1377C70.1377 170.627 70.431 168.787 71.0177 167.32C71.6043 165.827 72.471 164.707 73.6177 163.96C74.791 163.213 76.2443 162.84 77.9777 162.84H78.2177C80.8043 162.84 82.7643 163.68 84.0977 165.36C85.431 167.013 86.0977 169.493 86.0977 172.8V185.24H80.5377V172.32C80.5377 170.987 80.151 169.907 79.3777 169.08C78.631 168.253 77.591 167.84 76.2577 167.84C74.8977 167.84 73.791 168.267 72.9377 169.12C72.111 169.947 71.6977 171.067 71.6977 172.48V185.24H66.1377ZM102.475 186C99.8885 186 97.7018 185.587 95.9152 184.76C94.1552 183.933 92.8085 182.8 91.8752 181.36C90.9418 179.893 90.4752 178.24 90.4752 176.4H96.0352C96.0352 177.173 96.2485 177.933 96.6752 178.68C97.1018 179.4 97.7818 179.987 98.7152 180.44C99.6752 180.893 100.928 181.12 102.475 181.12C103.862 181.12 105.022 180.92 105.955 180.52C106.889 180.12 107.582 179.6 108.035 178.96C108.489 178.293 108.715 177.547 108.715 176.72C108.715 175.68 108.275 174.853 107.395 174.24C106.515 173.6 105.155 173.2 103.315 173.04L100.755 172.84C97.9552 172.6 95.7152 171.733 94.0352 170.24C92.3818 168.72 91.5552 166.72 91.5552 164.24C91.5552 162.373 91.9952 160.773 92.8752 159.44C93.7552 158.08 94.9818 157.04 96.5552 156.32C98.1552 155.573 100.022 155.2 102.155 155.2C104.368 155.2 106.275 155.587 107.875 156.36C109.475 157.133 110.715 158.227 111.595 159.64C112.475 161.027 112.915 162.667 112.915 164.56H107.355C107.355 163.76 107.155 163.027 106.755 162.36C106.382 161.667 105.809 161.12 105.035 160.72C104.288 160.293 103.328 160.08 102.155 160.08C101.035 160.08 100.102 160.267 99.3552 160.64C98.6085 161.013 98.0485 161.52 97.6752 162.16C97.3018 162.8 97.1152 163.493 97.1152 164.24C97.1152 165.147 97.4485 165.947 98.1152 166.64C98.7818 167.307 99.8352 167.693 101.275 167.8L103.835 168.04C105.915 168.2 107.742 168.64 109.315 169.36C110.888 170.08 112.102 171.053 112.955 172.28C113.835 173.507 114.275 174.987 114.275 176.72C114.275 178.56 113.795 180.187 112.835 181.6C111.875 182.987 110.502 184.067 108.715 184.84C106.955 185.613 104.875 186 102.475 186ZM119.548 185.24V156.04H125.228V185.24H119.548Z" fill="black"/>
</svg>
