<svg width="258" height="119" viewBox="0 0 258 119" fill="none" xmlns="http://www.w3.org/2000/svg">
<path fill-rule="evenodd" clip-rule="evenodd" d="M52.6902 16.4817C57.0993 16.4817 60.6735 12.9075 60.6735 8.49837C60.6735 4.08929 57.0993 0.515015 52.6902 0.515015C48.2811 0.515015 44.7068 4.08929 44.7068 8.49837C44.7068 9.33848 44.8366 10.1483 45.0772 10.9088L11.1811 30.4787C10.3331 29.7179 9.21229 29.2551 7.98335 29.2551C5.3379 29.2551 3.19334 31.3997 3.19334 34.0451C3.19334 36.1307 4.52625 37.905 6.38668 38.5626V51.7682C2.74269 52.5079 0 55.7296 0 59.5919C0 64.001 3.57427 67.5752 7.98336 67.5752C10.4512 67.5752 12.6574 66.4555 14.1218 64.6964L47.9209 84.2103C47.9072 84.3582 47.9001 84.5081 47.9001 84.6596C47.9001 86.7452 49.2331 88.5195 51.0935 89.1771V102.223C49.2283 102.602 47.5993 103.631 46.4533 105.063L12.751 85.6047C12.7658 85.4513 12.7734 85.2959 12.7734 85.1386C12.7734 82.4932 10.6288 80.3486 7.98335 80.3486C5.3379 80.3486 3.19334 82.4932 3.19334 85.1386C3.19334 87.7841 5.3379 89.9286 7.98335 89.9286C9.31598 89.9286 10.5215 89.3844 11.3898 88.5061L44.9963 107.909C44.8076 108.589 44.7068 109.306 44.7068 110.047C44.7068 114.456 48.2811 118.03 52.6902 118.03C57.0993 118.03 60.6735 114.456 60.6735 110.047C60.6735 109.654 60.6452 109.267 60.5903 108.89L71.9246 102.346C72.7626 103.066 73.8523 103.5 75.0436 103.5C77.689 103.5 79.8336 101.356 79.8336 98.7104C79.8336 98.4085 79.8057 98.113 79.7522 97.8266L91.8253 90.8562C93.2638 92.2583 95.2295 93.122 97.397 93.122C101.806 93.122 105.38 89.5477 105.38 85.1386C105.38 80.7296 101.806 77.1553 97.397 77.1553C92.9879 77.1553 89.4136 80.7296 89.4136 85.1386C89.4136 86.2263 89.6311 87.2632 90.0251 88.2082L78.1501 95.0642C77.7088 94.6878 77.1982 94.3902 76.6403 94.1929V51.3359C78.5007 50.6783 79.8336 48.9041 79.8336 46.8185C79.8336 46.5558 79.8125 46.2981 79.7718 46.047L91.4107 39.3272C92.8735 40.9838 95.0133 42.0285 97.397 42.0285C101.806 42.0285 105.38 38.4542 105.38 34.0451C105.38 29.636 101.806 26.0618 97.397 26.0618C95.1238 26.0618 93.0724 27.0119 91.6185 28.5367L79.8128 21.7207C79.8266 21.5729 79.8336 21.4231 79.8336 21.2717C79.8336 18.6263 77.689 16.4817 75.0436 16.4817C72.3981 16.4817 70.2536 18.6263 70.2536 21.2717C70.2536 21.5287 70.2738 21.781 70.3128 22.0271L55.9123 30.3412C55.0615 29.5672 53.9309 29.0954 52.6902 29.0954C50.0447 29.0954 47.9001 31.24 47.9001 33.8855C47.9001 36.5309 50.0447 38.6755 52.6902 38.6755C55.3356 38.6755 57.4802 36.5309 57.4802 33.8855C57.4802 33.6372 57.4613 33.3933 57.4249 33.1553L71.8399 24.8328C72.6885 25.5968 73.8118 26.0617 75.0436 26.0617C76.382 26.0617 77.5922 25.5128 78.4614 24.6278L89.9192 31.243C89.5924 32.1148 89.4136 33.0591 89.4136 34.0451C89.4136 34.9237 89.5555 35.769 89.8177 36.5596L78.2353 43.2467C77.3881 42.4891 76.2696 42.0285 75.0436 42.0285C72.3981 42.0285 70.2536 44.173 70.2536 46.8185C70.2536 47.1539 70.288 47.4812 70.3536 47.7972L58.9845 54.3612C57.5233 52.4913 55.2471 51.2892 52.6902 51.2892C50.1665 51.2892 47.9163 52.4602 46.4533 54.2886L12.7129 34.8085C12.7527 34.5599 12.7734 34.3049 12.7734 34.0451C12.7734 33.7853 12.7527 33.5303 12.7129 33.2817L46.6324 13.6983C48.0965 15.4024 50.2673 16.4817 52.6902 16.4817ZM70.3319 99.578C70.2805 99.2966 70.2536 99.0067 70.2536 98.7104C70.2536 96.6248 71.5865 94.8505 73.4469 94.1929V51.3359C72.9202 51.1498 72.4358 50.8741 72.0119 50.5272L60.4088 57.2262C60.5815 57.8793 60.6735 58.5652 60.6735 59.2726C60.6735 63.6816 57.0993 67.2559 52.6902 67.2559C48.2811 67.2559 44.7068 63.6816 44.7068 59.2726C44.7068 58.5321 44.8076 57.8151 44.9963 57.1347L11.1811 37.6115C10.7194 38.0257 10.1769 38.3516 9.58002 38.5626V51.7682C13.224 52.5079 15.9667 55.7296 15.9667 59.5919C15.9667 60.3877 15.8503 61.1564 15.6334 61.8818L49.2726 81.3034C50.1417 80.4185 51.3518 79.8696 52.6902 79.8696C55.3356 79.8696 57.4802 82.0142 57.4802 84.6596C57.4802 86.7452 56.1473 88.5195 54.2868 89.1771V102.223C56.4759 102.667 58.3397 104.007 59.479 105.844L70.3319 99.578Z" fill="white"/>
<path d="M138.998 76.9825C136.116 76.9825 133.57 76.5072 131.362 75.5565C129.185 74.5752 127.345 73.2718 125.842 71.6465C124.37 69.9905 123.251 68.1352 122.484 66.0805C121.748 63.9952 121.38 61.8332 121.38 59.5945V58.5825C121.38 56.4665 121.748 54.3965 122.484 52.3725C123.22 50.3485 124.294 48.5238 125.704 46.8985C127.146 45.2732 128.909 43.9852 130.994 43.0345C133.11 42.0532 135.533 41.5625 138.262 41.5625C141.206 41.5625 143.813 42.1145 146.082 43.2185C148.352 44.2918 150.176 45.8098 151.556 47.7725C152.936 49.7045 153.749 51.9585 153.994 54.5345H147.416C147.202 53.0932 146.665 51.8665 145.806 50.8545C144.948 49.8118 143.859 49.0145 142.54 48.4625C141.252 47.9105 139.826 47.6345 138.262 47.6345C136.698 47.6345 135.272 47.9105 133.984 48.4625C132.727 49.0145 131.654 49.7965 130.764 50.8085C129.875 51.8205 129.185 53.0318 128.694 54.4425C128.234 55.8532 128.004 57.4172 128.004 59.1345C128.004 61.0052 128.265 62.6765 128.786 64.1485C129.308 65.6205 130.044 66.8778 130.994 67.9205C131.945 68.9325 133.095 69.7145 134.444 70.2665C135.794 70.7878 137.312 71.0485 138.998 71.0485C141.237 71.0485 143.2 70.5885 144.886 69.6685C146.573 68.7178 147.8 67.4912 148.566 65.9885L147.416 71.2785V62.6305H153.442V70.0825C152.001 72.2598 150.038 73.9618 147.554 75.1885C145.07 76.3845 142.218 76.9825 138.998 76.9825ZM137.94 63.9185V59.0425H156.248V63.9185H137.94ZM172.304 76.9825C170.157 76.9825 168.271 76.6145 166.646 75.8785C165.051 75.1425 163.717 74.1612 162.644 72.9345C161.601 71.6772 160.804 70.2818 160.252 68.7485C159.73 67.2152 159.47 65.6512 159.47 64.0565V63.1825C159.47 61.5265 159.73 59.9318 160.252 58.3985C160.804 56.8345 161.601 55.4545 162.644 54.2585C163.717 53.0318 165.036 52.0658 166.6 51.3605C168.164 50.6245 169.973 50.2565 172.028 50.2565C174.726 50.2565 176.98 50.8545 178.79 52.0505C180.63 53.2158 182.01 54.7645 182.93 56.6965C183.85 58.5978 184.31 60.6525 184.31 62.8605V65.1605H162.184V61.2505H180.308L178.33 63.1825C178.33 61.5878 178.1 60.2232 177.64 59.0885C177.18 57.9538 176.474 57.0798 175.524 56.4665C174.604 55.8532 173.438 55.5465 172.028 55.5465C170.617 55.5465 169.421 55.8685 168.44 56.5125C167.458 57.1565 166.707 58.0918 166.186 59.3185C165.695 60.5145 165.45 61.9558 165.45 63.6425C165.45 65.2065 165.695 66.6018 166.186 67.8285C166.676 69.0245 167.428 69.9752 168.44 70.6805C169.452 71.3552 170.74 71.6925 172.304 71.6925C173.868 71.6925 175.14 71.3858 176.122 70.7725C177.103 70.1285 177.732 69.3465 178.008 68.4265H183.896C183.528 70.1438 182.822 71.6465 181.78 72.9345C180.737 74.2225 179.403 75.2192 177.778 75.9245C176.183 76.6298 174.358 76.9825 172.304 76.9825ZM189.651 76.1085V51.1305H194.711V61.8485H194.251C194.251 59.3032 194.589 57.1872 195.263 55.5005C195.938 53.7832 196.935 52.4952 198.253 51.6365C199.603 50.7778 201.274 50.3485 203.267 50.3485H203.543C206.518 50.3485 208.772 51.3145 210.305 53.2465C211.839 55.1478 212.605 57.9998 212.605 61.8025V76.1085H206.211V61.2505C206.211 59.7172 205.767 58.4752 204.877 57.5245C204.019 56.5738 202.823 56.0985 201.289 56.0985C199.725 56.0985 198.453 56.5892 197.471 57.5705C196.521 58.5212 196.045 59.8092 196.045 61.4345V76.1085H189.651ZM231.439 76.9825C228.465 76.9825 225.95 76.5072 223.895 75.5565C221.871 74.6058 220.323 73.3025 219.249 71.6465C218.176 69.9598 217.639 68.0585 217.639 65.9425H224.033C224.033 66.8318 224.279 67.7058 224.769 68.5645C225.26 69.3925 226.042 70.0672 227.115 70.5885C228.219 71.1098 229.661 71.3705 231.439 71.3705C233.034 71.3705 234.368 71.1405 235.441 70.6805C236.515 70.2205 237.312 69.6225 237.833 68.8865C238.355 68.1198 238.615 67.2612 238.615 66.3105C238.615 65.1145 238.109 64.1638 237.097 63.4585C236.085 62.7225 234.521 62.2625 232.405 62.0785L229.461 61.8485C226.241 61.5725 223.665 60.5758 221.733 58.8585C219.832 57.1105 218.881 54.8105 218.881 51.9585C218.881 49.8118 219.387 47.9718 220.399 46.4385C221.411 44.8745 222.822 43.6785 224.631 42.8505C226.471 41.9918 228.618 41.5625 231.071 41.5625C233.617 41.5625 235.809 42.0072 237.649 42.8965C239.489 43.7858 240.915 45.0432 241.927 46.6685C242.939 48.2632 243.445 50.1492 243.445 52.3265H237.051C237.051 51.4065 236.821 50.5632 236.361 49.7965C235.932 48.9992 235.273 48.3705 234.383 47.9105C233.525 47.4198 232.421 47.1745 231.071 47.1745C229.783 47.1745 228.71 47.3892 227.851 47.8185C226.993 48.2478 226.349 48.8305 225.919 49.5665C225.49 50.3025 225.275 51.0998 225.275 51.9585C225.275 53.0012 225.659 53.9212 226.425 54.7185C227.192 55.4852 228.403 55.9298 230.059 56.0525L233.003 56.3285C235.395 56.5125 237.496 57.0185 239.305 57.8465C241.115 58.6745 242.51 59.7938 243.491 61.2045C244.503 62.6152 245.009 64.3172 245.009 66.3105C245.009 68.4265 244.457 70.2972 243.353 71.9225C242.249 73.5172 240.67 74.7592 238.615 75.6485C236.591 76.5378 234.199 76.9825 231.439 76.9825ZM251.073 76.1085V42.5285H257.605V76.1085H251.073Z" fill="white"/>
</svg>
