<svg width="258" height="118" viewBox="0 0 258 118" fill="none" xmlns="http://www.w3.org/2000/svg">
<path fill-rule="evenodd" clip-rule="evenodd" d="M52.6902 15.9667C57.0993 15.9667 60.6735 12.3924 60.6735 7.98336C60.6735 3.57427 57.0993 0 52.6902 0C48.2811 0 44.7068 3.57427 44.7068 7.98336C44.7068 8.82347 44.8366 9.63327 45.0772 10.3938L11.1811 29.9637C10.3331 29.2029 9.21229 28.7401 7.98335 28.7401C5.3379 28.7401 3.19334 30.8846 3.19334 33.5301C3.19334 35.6157 4.52625 37.39 6.38668 38.0475V51.2532C2.74269 51.9929 0 55.2146 0 59.0769C0 63.4859 3.57427 67.0602 7.98336 67.0602C10.4512 67.0602 12.6574 65.9405 14.1218 64.1814L47.9209 83.6953C47.9072 83.8432 47.9001 83.9931 47.9001 84.1446C47.9001 86.2302 49.2331 88.0045 51.0935 88.6621V101.708C49.2283 102.087 47.5993 103.116 46.4533 104.548L12.751 85.0896C12.7658 84.9363 12.7734 84.7808 12.7734 84.6236C12.7734 81.9781 10.6288 79.8336 7.98335 79.8336C5.3379 79.8336 3.19334 81.9781 3.19334 84.6236C3.19334 87.2691 5.3379 89.4136 7.98335 89.4136C9.31598 89.4136 10.5215 88.8694 11.3898 87.9911L44.9963 107.394C44.8076 108.074 44.7068 108.791 44.7068 109.532C44.7068 113.941 48.2811 117.515 52.6902 117.515C57.0993 117.515 60.6735 113.941 60.6735 109.532C60.6735 109.139 60.6452 108.752 60.5903 108.375L71.9246 101.831C72.7626 102.551 73.8523 102.985 75.0436 102.985C77.689 102.985 79.8336 100.841 79.8336 98.1954C79.8336 97.8934 79.8057 97.598 79.7522 97.3116L91.8253 90.3412C93.2638 91.7432 95.2295 92.607 97.397 92.607C101.806 92.607 105.38 89.0327 105.38 84.6236C105.38 80.2145 101.806 76.6403 97.397 76.6403C92.9879 76.6403 89.4136 80.2145 89.4136 84.6236C89.4136 85.7113 89.6311 86.7482 90.0251 87.6932L78.1501 94.5492C77.7088 94.1728 77.1982 93.8752 76.6403 93.6779V50.8209C78.5007 50.1633 79.8336 48.389 79.8336 46.3035C79.8336 46.0408 79.8125 45.7831 79.7718 45.5319L91.4107 38.8122C92.8735 40.4687 95.0133 41.5135 97.397 41.5135C101.806 41.5135 105.38 37.9392 105.38 33.5301C105.38 29.121 101.806 25.5468 97.397 25.5468C95.1238 25.5468 93.0724 26.4969 91.6185 28.0216L79.8128 21.2057C79.8266 21.0579 79.8336 20.9081 79.8336 20.7567C79.8336 18.1113 77.689 15.9667 75.0436 15.9667C72.3981 15.9667 70.2536 18.1113 70.2536 20.7567C70.2536 21.0137 70.2738 21.266 70.3128 21.512L55.9123 29.8261C55.0615 29.0522 53.9309 28.5804 52.6902 28.5804C50.0447 28.5804 47.9001 30.725 47.9001 33.3704C47.9001 36.0159 50.0447 38.1605 52.6902 38.1605C55.3356 38.1605 57.4802 36.0159 57.4802 33.3704C57.4802 33.1222 57.4613 32.8783 57.4249 32.6402L71.8399 24.3177C72.6885 25.0818 73.8118 25.5467 75.0436 25.5467C76.382 25.5467 77.5922 24.9978 78.4614 24.1127L89.9192 30.728C89.5924 31.5998 89.4136 32.5441 89.4136 33.5301C89.4136 34.4086 89.5555 35.254 89.8177 36.0446L78.2353 42.7317C77.3881 41.9741 76.2696 41.5134 75.0436 41.5134C72.3981 41.5134 70.2536 43.658 70.2536 46.3035C70.2536 46.6389 70.288 46.9662 70.3536 47.2822L58.9845 53.8462C57.5233 51.9763 55.2471 50.7742 52.6902 50.7742C50.1665 50.7742 47.9163 51.9452 46.4533 53.7736L12.7129 34.2935C12.7527 34.0449 12.7734 33.7899 12.7734 33.5301C12.7734 33.2703 12.7527 33.0153 12.7129 32.7667L46.6324 13.1833C48.0965 14.8874 50.2673 15.9667 52.6902 15.9667ZM70.3319 99.063C70.2805 98.7816 70.2536 98.4916 70.2536 98.1954C70.2536 96.1098 71.5865 94.3355 73.4469 93.6779V50.8209C72.9202 50.6347 72.4358 50.3591 72.0119 50.0121L60.4088 56.7111C60.5815 57.3642 60.6735 58.0502 60.6735 58.7575C60.6735 63.1666 57.0993 66.7409 52.6902 66.7409C48.2811 66.7409 44.7068 63.1666 44.7068 58.7575C44.7068 58.0171 44.8076 57.3001 44.9963 56.6197L11.1811 37.0965C10.7194 37.5107 10.1769 37.8366 9.58002 38.0475V51.2532C13.224 51.9929 15.9667 55.2146 15.9667 59.0769C15.9667 59.8727 15.8503 60.6414 15.6334 61.3668L49.2726 80.7883C50.1417 79.9034 51.3518 79.3546 52.6902 79.3546C55.3356 79.3546 57.4802 81.4991 57.4802 84.1446C57.4802 86.2302 56.1473 88.0045 54.2868 88.662V101.708C56.4759 102.152 58.3397 103.492 59.479 105.329L70.3319 99.063Z" fill="black"/>
<path d="M138.998 76.4675C136.116 76.4675 133.57 75.9922 131.362 75.0415C129.185 74.0602 127.345 72.7568 125.842 71.1315C124.37 69.4755 123.251 67.6202 122.484 65.5655C121.748 63.4802 121.38 61.3182 121.38 59.0795V58.0675C121.38 55.9515 121.748 53.8815 122.484 51.8575C123.22 49.8335 124.294 48.0088 125.704 46.3835C127.146 44.7582 128.909 43.4702 130.994 42.5195C133.11 41.5382 135.533 41.0475 138.262 41.0475C141.206 41.0475 143.813 41.5995 146.082 42.7035C148.352 43.7768 150.176 45.2948 151.556 47.2575C152.936 49.1895 153.749 51.4435 153.994 54.0195H147.416C147.202 52.5782 146.665 51.3515 145.806 50.3395C144.948 49.2968 143.859 48.4995 142.54 47.9475C141.252 47.3955 139.826 47.1195 138.262 47.1195C136.698 47.1195 135.272 47.3955 133.984 47.9475C132.727 48.4995 131.654 49.2815 130.764 50.2935C129.875 51.3055 129.185 52.5168 128.694 53.9275C128.234 55.3382 128.004 56.9022 128.004 58.6195C128.004 60.4902 128.265 62.1615 128.786 63.6335C129.308 65.1055 130.044 66.3628 130.994 67.4055C131.945 68.4175 133.095 69.1995 134.444 69.7515C135.794 70.2728 137.312 70.5335 138.998 70.5335C141.237 70.5335 143.2 70.0735 144.886 69.1535C146.573 68.2028 147.8 66.9762 148.566 65.4735L147.416 70.7635V62.1155H153.442V69.5675C152.001 71.7448 150.038 73.4468 147.554 74.6735C145.07 75.8695 142.218 76.4675 138.998 76.4675ZM137.94 63.4035V58.5275H156.248V63.4035H137.94ZM172.304 76.4675C170.157 76.4675 168.271 76.0995 166.646 75.3635C165.051 74.6275 163.717 73.6462 162.644 72.4195C161.601 71.1622 160.804 69.7668 160.252 68.2335C159.73 66.7002 159.47 65.1362 159.47 63.5415V62.6675C159.47 61.0115 159.73 59.4168 160.252 57.8835C160.804 56.3195 161.601 54.9395 162.644 53.7435C163.717 52.5168 165.036 51.5508 166.6 50.8455C168.164 50.1095 169.973 49.7415 172.028 49.7415C174.726 49.7415 176.98 50.3395 178.79 51.5355C180.63 52.7008 182.01 54.2495 182.93 56.1815C183.85 58.0828 184.31 60.1375 184.31 62.3455V64.6455H162.184V60.7355H180.308L178.33 62.6675C178.33 61.0728 178.1 59.7082 177.64 58.5735C177.18 57.4388 176.474 56.5648 175.524 55.9515C174.604 55.3382 173.438 55.0315 172.028 55.0315C170.617 55.0315 169.421 55.3535 168.44 55.9975C167.458 56.6415 166.707 57.5768 166.186 58.8035C165.695 59.9995 165.45 61.4408 165.45 63.1275C165.45 64.6915 165.695 66.0868 166.186 67.3135C166.676 68.5095 167.428 69.4602 168.44 70.1655C169.452 70.8402 170.74 71.1775 172.304 71.1775C173.868 71.1775 175.14 70.8708 176.122 70.2575C177.103 69.6135 177.732 68.8315 178.008 67.9115H183.896C183.528 69.6288 182.822 71.1315 181.78 72.4195C180.737 73.7075 179.403 74.7042 177.778 75.4095C176.183 76.1148 174.358 76.4675 172.304 76.4675ZM189.651 75.5935V50.6155H194.711V61.3335H194.251C194.251 58.7882 194.589 56.6722 195.263 54.9855C195.938 53.2682 196.935 51.9802 198.253 51.1215C199.603 50.2628 201.274 49.8335 203.267 49.8335H203.543C206.518 49.8335 208.772 50.7995 210.305 52.7315C211.839 54.6328 212.605 57.4848 212.605 61.2875V75.5935H206.211V60.7355C206.211 59.2022 205.767 57.9602 204.877 57.0095C204.019 56.0588 202.823 55.5835 201.289 55.5835C199.725 55.5835 198.453 56.0742 197.471 57.0555C196.521 58.0062 196.045 59.2942 196.045 60.9195V75.5935H189.651ZM231.439 76.4675C228.465 76.4675 225.95 75.9922 223.895 75.0415C221.871 74.0908 220.323 72.7875 219.249 71.1315C218.176 69.4448 217.639 67.5435 217.639 65.4275H224.033C224.033 66.3168 224.279 67.1908 224.769 68.0495C225.26 68.8775 226.042 69.5522 227.115 70.0735C228.219 70.5948 229.661 70.8555 231.439 70.8555C233.034 70.8555 234.368 70.6255 235.441 70.1655C236.515 69.7055 237.312 69.1075 237.833 68.3715C238.355 67.6048 238.615 66.7462 238.615 65.7955C238.615 64.5995 238.109 63.6488 237.097 62.9435C236.085 62.2075 234.521 61.7475 232.405 61.5635L229.461 61.3335C226.241 61.0575 223.665 60.0608 221.733 58.3435C219.832 56.5955 218.881 54.2955 218.881 51.4435C218.881 49.2968 219.387 47.4568 220.399 45.9235C221.411 44.3595 222.822 43.1635 224.631 42.3355C226.471 41.4768 228.618 41.0475 231.071 41.0475C233.617 41.0475 235.809 41.4922 237.649 42.3815C239.489 43.2708 240.915 44.5282 241.927 46.1535C242.939 47.7482 243.445 49.6342 243.445 51.8115H237.051C237.051 50.8915 236.821 50.0482 236.361 49.2815C235.932 48.4842 235.273 47.8555 234.383 47.3955C233.525 46.9048 232.421 46.6595 231.071 46.6595C229.783 46.6595 228.71 46.8742 227.851 47.3035C226.993 47.7328 226.349 48.3155 225.919 49.0515C225.49 49.7875 225.275 50.5848 225.275 51.4435C225.275 52.4862 225.659 53.4062 226.425 54.2035C227.192 54.9702 228.403 55.4148 230.059 55.5375L233.003 55.8135C235.395 55.9975 237.496 56.5035 239.305 57.3315C241.115 58.1595 242.51 59.2788 243.491 60.6895C244.503 62.1002 245.009 63.8022 245.009 65.7955C245.009 67.9115 244.457 69.7822 243.353 71.4075C242.249 73.0022 240.67 74.2442 238.615 75.1335C236.591 76.0228 234.199 76.4675 231.439 76.4675ZM251.073 75.5935V42.0135H257.605V75.5935H251.073Z" fill="black"/>
</svg>
